# AST/ASF file generated using VICON BodyLanguage
# -----------------------------------------------
:version 1.10
:name VICON
:units
  mass 1.0
  length 0.45
  angle deg
:documentation
   .ast/.asf automatically generated from VICON data using
   VICON BodyBuilder and BodyLanguage model FoxedUp or BRILLIANT.MOD
:root
   order TX TY TZ RX RY RZ
   axis XYZ
   position 0 0 0  
   orientation 0 0 0 
:bonedata
  begin
     id 1 
     name lhipjoint
     direction 0.690799 -0.707083 0.151096 
     length 2.54797 
     axis 0 0 0  XYZ
  end
  begin
     id 2 
     name lfemur
     direction 0.34202 -0.939693 0  
     length 7.21646  
     axis 0 0 20  XYZ
    dof rx ry rz
    limits (-160.0 20.0)
           (-70.0 70.0)
           (-60.0 70.0)
  end
  begin
     id 3 
     name ltibia
     direction 0.34202 -0.939693 0   
     length 8.16759   
     axis 0 0 20   XYZ
    dof rx
    limits (-10.0 170.0)
  end
  begin
     id 4 
     name lfoot
     direction 0.0487203 -0.133858 0.989802   
     length 1.93375   
     axis -90 7.62852e-016 20   XYZ
    dof rx rz
    limits (-45.0 90.0)
           (-70.0 20.0)
  end
  begin
     id 5 
     name ltoes
     direction 1.53453e-011 -4.21783e-011 1   
     length 0.979747   
     axis -90 7.62852e-016 20   XYZ
    dof rx
    limits (-90.0 20.0)
  end
  begin
     id 6 
     name rhipjoint
     direction -0.694693 -0.703425 0.150315   
     length 2.56122  
     axis 0 0 0  XYZ 
  end
  begin
     id 7 
     name rfemur
     direction -0.34202 -0.939693 0   
     length 7.36786   
     axis 0 0 -20   XYZ
    dof rx ry rz
    limits (-160.0 20.0)
           (-70.0 70.0)
           (-70.0 60.0)
  end
  begin
     id 8 
     name rtibia
     direction -0.34202 -0.939693 0   
     length 8.07288   
     axis 0 0 -20   XYZ
    dof rx
    limits (-10.0 170.0)
 end
 begin
     id 9 
     name rfoot
     direction -0.0428397 -0.117701 0.992125   
     length 1.88295  
     axis -90 -7.62852e-016 -20   XYZ
    dof rx rz
    limits (-45.0 90.0)
           (-20.0 70.0)
  end
  begin
     id 10 
     name rtoes
     direction -1.53456e-011 -4.2187e-011 1   
     length 0.955578   
     axis -90 -7.62852e-016 -20   XYZ
    dof rx
    limits (-90.0 20.0)
  end
  begin
     id 11 
     name lowerback
     direction 0.0288145 0.999398 -0.0193241   
     length 1.92149   
     axis 0 0 0   XYZ
    dof rx ry rz
    limits (-20.0 45.0)
           (-30.0 30.0)
           (-30.0 30.0)
  end
  begin
     id 12 
     name upperback
     direction 0.0233784 0.998099 0.0570278   
     length 1.90435   
     axis 0 0 0   XYZ
    dof rx ry rz
    limits (-20.0 45.0)
           (-30.0 30.0)
           (-30.0 30.0)
  end
  begin
     id 13 
     name thorax
     direction 0.0096694 0.997833 0.0650817   
     length 1.9111   
     axis 0 0 0   XYZ
    dof rx ry rz
    limits (-20.0 45.0)
           (-30.0 30.0)
           (-30.0 30.0)
  end
  begin
     id 14 
     name lowerneck
     direction 0.00516803 0.999916 0.0118722   
     length 1.74664   
     axis 0 0 0   XYZ
    dof rx ry rz
    limits (-20.0 45.0)
           (-30.0 30.0)
           (-30.0 30.0)
  end
  begin
     id 15 
     name upperneck
     direction -0.0510851 0.996117 -0.071696   
     length 1.68498   
     axis 0 0 0   XYZ
    dof rx ry rz
    limits (-20.0 45.0)
           (-30.0 30.0)
           (-30.0 30.0)
  end
  begin
     id 16
     name head
     direction -0.019188 0.999436 -0.0275702  
     length 1.83483  
     axis 0 0 0   XYZ
    dof rx ry rz
    limits (-20.0 45.0)
           (-30.0 30.0)
           (-30.0 30.0)
  end
  begin
     id 17 
     name lclavicle
     direction 0.967006 0.248456 -0.0562957  
     length 3.39395  
     axis 0 0 0   XYZ
    dof ry rz
    limits (-20.0 10.0)
           (0.0 20.0)
  end
  begin
     id 18 
     name lhumerus
     direction 1 -4.48962e-011 -5.62711e-019   
     length 5.24318   
     axis 180 -30 -90   XYZ
    dof rx ry rz
    limits (-60.0 90.0)
           (-90.0 90.0)
           (-90.0 90.0)
  end
  begin
     id 19
     name lradius
     direction 1 -4.48966e-011 7.90625e-027   
     length 2.98999   
     axis 180 -30 -90   XYZ
    dof rx
    limits (-10.0 170.0)
  end
  begin
     id 20
     name lwrist
     direction 1 -4.48959e-011 1.61068e-026   
     length 1.49499   
     axis -9.31229e-015 90 90   XYZ
    dof ry
    limits (-180.0 0.0)
 end
  begin
     id 21 
     name lhand
     direction 1 -4.49017e-011 3.22136e-026   
     length 0.726745   
     axis -2.0555e-014 90 90   XYZ
    dof rx rz
    limits (-90.0 90.0)
           (-45.0 45.0)
  end
  begin
     id 22 
     name lfingers
     direction 1 -4.4898e-011 6.44272e-026   
     length 0.58592   
     axis -4.11101e-014 90 90   XYZ
    dof rx
    limits (0.0 90.0)
  end
  begin
     id 23
     name lthumb
     direction 0.707107 -6.34922e-011 0.707107   
     length 0.841268   
     axis -90 45 2.85299e-015   XYZ
    dof rx rz
    limits (-45.0 45.0)
           (-45.0 45.0)
  end
  begin
     id 24 
     name rclavicle
     direction -0.972232 0.230238 0.0419005   
     length 3.40416  
     axis 0 0 0   XYZ 
    dof ry rz
    limits (-10.0 20.0)
           (-20.0 0.0)
  end
  begin
     id 25 
     name rhumerus
     direction -1 -4.48976e-011 2.48487e-027  
     length 5.37045   
     axis 180 30 90   XYZ
    dof rx ry rz
    limits (-90.0 60.0)
           (-90.0 90.0)
           (-90.0 90.0)
  end
  begin
     id 26 
     name rradius
     direction -1 -4.48942e-011 7.87951e-027   
     length 2.92792   
     axis 180 30 90   XYZ
    dof rx
    limits (-10.0 170.0)
  end
  begin
     id 27 
     name rwrist
     direction -1 -4.48969e-011 1.61068e-026   
     length 1.46396   
     axis -9.31229e-015 -90 -90   XYZ
    dof ry
    limits (-180.0 0.0)
  end
  begin
     id 28
     name rhand
     direction -1 -4.49043e-011 3.22136e-026   
     length 0.784497   
     axis -2.0555e-014 -90 -90   XYZ
    dof rx rz
    limits (-90.0 90.0)
           (-45.0 45.0)
  end
  begin
     id 29
     name rfingers
     direction -1 -4.48823e-011 6.44272e-026   
     length 0.632482   
     axis -4.11101e-014 -90 -90   XYZ
    dof rx
    limits (0.0 90.0)
  end
  begin
     id 30
     name rthumb
     direction -0.707107 -6.34923e-011 0.707107   
     length 0.908121   
     axis -90 -45 -2.85299e-015   XYZ
    dof rx rz
    limits (-45.0 45.0)
           (-45.0 45.0)
  end
:hierarchy
  begin
    root lhipjoint rhipjoint lowerback
    lhipjoint lfemur
    lfemur ltibia
    ltibia lfoot
    lfoot ltoes
    rhipjoint rfemur
    rfemur rtibia
    rtibia rfoot
    rfoot rtoes
    lowerback upperback
    upperback thorax
    thorax lowerneck lclavicle rclavicle
    lowerneck upperneck
    upperneck head
    lclavicle lhumerus
    lhumerus lradius
    lradius lwrist
    lwrist lhand lthumb
    lhand lfingers
    rclavicle rhumerus
    rhumerus rradius
    rradius rwrist
    rwrist rhand rthumb
    rhand rfingers
  end

#!OML:ASF E:\Style6\Style6.ASF
:FULLY-SPECIFIED
:DEGREES
1467
root 0.733787 17.2603 -1.27029 38.292 -4.57523 4.36102
lowerback 18.5519 -1.70563 1.06921
upperback 10.3047 -2.0046 1.715
thorax 0.708571 -1.001 1.55435
lowerneck 11.763 15.1309 -0.645642
upperneck 10.0212 20.5974 -17.1194
head 2.90912 10.0996 -5.09427
rclavicle 3.81667e-014 -3.10104e-014
rhumerus 21.1745 16.7854 -77.878
rradius 32.9298
rwrist 26.8238
rhand -3.58773 7.20969
rfingers 7.12502
rthumb 22.1498 -21.5414
lclavicle 3.81667e-014 -3.10104e-014
lhumerus 68.3121 -23.2355 52.6916
lradius 22.5442
lwrist -8.45155
lhand 1.56763 20.5614
lfingers 7.12502
lthumb 27.091 48.6376
rfemur -68.6921 -8.55842 18.6166
rtibia 38.7738
rfoot -2.84114 -2.26871
rtoes -18.5276
lfemur -63.9674 4.29009 -29.0834
ltibia 37.2565
lfoot -5.9348 -0.141861
ltoes -18.5512
1468
root 0.732702 17.2586 -1.27593 38.2624 -4.57989 4.32189
lowerback 18.486 -1.72856 1.10667
upperback 10.3093 -2.03062 1.70188
thorax 0.745878 -1.01204 1.52171
lowerneck 11.9794 15.1217 -0.415483
upperneck 9.91859 20.5935 -17.3338
head 2.88645 10.1215 -5.20882
rclavicle -2.06736e-014 3.06128e-014
rhumerus 21.104 16.6803 -77.9789
rradius 32.7934
rwrist 26.9877
rhand -3.60302 7.25587
rfingers 7.12502
rthumb 22.1351 -21.497
lclavicle -2.06736e-014 3.06128e-014
lhumerus 68.258 -23.172 52.438
lradius 22.5883
lwrist -8.30815
lhand 1.54339 20.6415
lfingers 7.12502
lthumb 27.0678 48.7214
rfemur -68.6801 -8.55651 18.689
rtibia 38.7515
rfoot -2.77443 -2.23572
rtoes -18.7596
lfemur -63.9853 4.32717 -29.0483
ltibia 37.3136
lfoot -5.91648 -0.236992
ltoes -18.0092
1469
root 0.731779 17.2593 -1.28296 38.2007 -4.47397 4.19195
lowerback 18.523 -1.75329 1.26479
upperback 10.3159 -2.03717 1.74785
thorax 0.731162 -1.01032 1.48336
lowerneck 12.2588 15.0805 -0.233978
upperneck 9.66546 20.518 -17.5606
head 2.7975 10.1211 -5.33416
rclavicle -1.11319e-014 1.31198e-014
rhumerus 21.0617 16.4854 -78.0591
rradius 32.5768
rwrist 27.1855
rhand -3.78161 7.37912
rfingers 7.12502
rthumb 21.9637 -21.394
lclavicle -1.11319e-014 1.31198e-014
lhumerus 68.117 -23.0519 52.8424
lradius 22.4428
lwrist -8.78685
lhand 1.43314 20.5681
lfingers 7.12502
lthumb 26.9623 48.6644
rfemur -68.5965 -8.56337 18.8956
rtibia 38.7062
rfoot -2.74975 -2.23014
rtoes -18.468
lfemur -63.9839 4.34066 -28.8579
ltibia 37.3825
lfoot -5.93194 -0.201766
ltoes -18.6032
1470
root 0.730471 17.2604 -1.28887 38.1373 -4.35119 4.05847
lowerback 18.5797 -1.77394 1.43318
upperback 10.3483 -2.03646 1.8152
thorax 0.734891 -1.00529 1.46079
lowerneck 12.3191 15.07 -0.245755
upperneck 9.53384 20.4828 -17.6025
head 2.74752 10.1161 -5.3558
rclavicle 1.39149e-014 -3.83654e-014
rhumerus 21.066 16.4072 -77.9991
rradius 32.4267
rwrist 27.1333
rhand -3.82158 7.37121
rfingers 7.12502
rthumb 21.9253 -21.4064
lclavicle 1.39149e-014 -3.83654e-014
lhumerus 68.034 -22.8659 53.3953
lradius 22.2187
lwrist -9.44376
lhand 1.31143 20.4573
lfingers 7.12502
lthumb 26.8459 48.5715
rfemur -68.4943 -8.54421 19.0667
rtibia 38.6701
rfoot -2.76776 -2.25735
rtoes -17.7115
lfemur -63.9716 4.31644 -28.6272
ltibia 37.443
lfoot -5.94124 -0.141807
ltoes -19.2597
1471
root 0.730656 17.2596 -1.29333 38.1119 -4.26899 3.96114
lowerback 18.5456 -1.78432 1.60455
upperback 10.3787 -2.02588 1.837
thorax 0.780516 -0.99376 1.38385
lowerneck 12.306 15.0804 -0.247416
upperneck 9.49887 20.487 -17.5206
head 2.73119 10.1198 -5.33119
rclavicle -2.78299e-015 3.33958e-014
rhumerus 21.0509 16.2628 -77.9741
rradius 32.3092
rwrist 27.1481
rhand -3.69036 7.38763
rfingers 7.12502
rthumb 22.0513 -21.3751
lclavicle -2.78299e-015 3.33958e-014
lhumerus 68.0362 -22.7323 53.6903
lradius 22.0514
lwrist -9.86226
lhand 1.42531 20.3768
lfingers 7.12502
lthumb 26.9549 48.4742
rfemur -68.4551 -8.54778 19.2116
rtibia 38.6593
rfoot -2.83504 -2.25665
rtoes -16.2952
lfemur -63.977 4.2755 -28.4383
ltibia 37.4839
lfoot -5.92913 -0.0946096
ltoes -19.1859
1472
root 0.730729 17.2554 -1.29811 38.1082 -4.2346 3.93317
lowerback 18.4914 -1.77858 1.67911
upperback 10.374 -2.00917 1.84333
thorax 0.80074 -0.982612 1.34399
lowerneck 12.1145 15.1001 -0.216356
upperneck 9.78047 20.5567 -17.3065
head 2.83536 10.1252 -5.24342
rclavicle 5.96354e-015 2.32578e-014
rhumerus 20.9764 16.1373 -77.9403
rradius 32.2132
rwrist 27.2279
rhand -3.64167 7.38486
rfingers 7.12502
rthumb 22.098 -21.3724
lclavicle 5.96354e-015 2.32578e-014
lhumerus 68.0683 -22.6869 53.6463
lradius 22.0346
lwrist -9.9024
lhand 1.64512 20.5017
lfingers 7.12502
lthumb 27.1651 48.5664
rfemur -68.4862 -8.56933 19.2778
rtibia 38.6972
rfoot -2.88043 -2.24569
rtoes -15.5448
lfemur -64.0011 4.24588 -28.366
ltibia 37.5024
lfoot -5.93321 -0.0718798
ltoes -18.7475
1473
root 0.729568 17.2523 -1.30376 38.1222 -4.28245 4.01155
lowerback 18.4461 -1.76141 1.57461
upperback 10.3352 -2.00316 1.84118
thorax 0.784802 -0.983855 1.39872
lowerneck 11.6639 15.1947 -0.403219
upperneck 10.4987 20.7536 -16.7902
head 3.07566 10.1443 -4.99853
rclavicle -1.82882e-014 2.50469e-014
rhumerus 20.839 15.9833 -77.9637
rradius 32.1441
rwrist 27.3178
rhand -3.59667 7.42729
rfingers 7.12502
rthumb 22.1412 -21.3249
lclavicle -1.82882e-014 2.50469e-014
lhumerus 68.0612 -22.6547 53.5576
lradius 22.026
lwrist -9.84175
lhand 1.64982 20.721
lfingers 7.12502
lthumb 27.1696 48.785
rfemur -68.5794 -8.60731 19.2163
rtibia 38.7591
rfoot -2.77313 -2.1865
rtoes -17.1764
lfemur -64.0577 4.2453 -28.4862
ltibia 37.5134
lfoot -5.93923 -0.121601
ltoes -18.4733
